<svg width="62" height="62" viewBox="0 0 62 62" fill="none" xmlns="http://www.w3.org/2000/svg">
<path fill-rule="evenodd" clip-rule="evenodd" d="M39.6952 0.818486C21.738 -2.14525 6.68386 2.61011 4.21441 20.5102C2.15095 41.8871 11.3097 47.1376 17.7551 50.6581C26.886 55.6451 33.5927 48.3297 35.9414 55.6085C38.2902 62.8871 40.5319 61.958 42.2067 61.9328C45.2447 62.0856 54.7779 57.4631 57.3406 36.0298C59.9034 14.5954 55.169 4.06826 39.6952 0.818486ZM7.37958 17.327C10.027 11.2841 17.8658 7.05209 32.4912 8.18487C44.1696 9.08973 45.9813 20.2026 46.0305 25.2283C46.1055 32.8683 42.3177 36.7278 40.4456 37.9514C37.1785 40.1733 28.152 43.9031 16.0787 40.4627C4.66285 35.7386 5.38206 21.8861 7.37958 17.327Z" fill="#3C82F5"/>
<rect width="3" height="11" rx="1.5" transform="matrix(-0.999126 0.0417903 0.0417903 0.999126 33.2422 17.8867)" fill="#F5D63C"/>
<rect width="3" height="11" rx="1.5" transform="matrix(-0.999126 0.0417903 0.0417903 0.999126 18.2246 18.6133)" fill="#F5D63C"/>
</svg>
