<svg width="64" height="64" viewBox="0 0 64 64" fill="none" xmlns="http://www.w3.org/2000/svg">
<path d="M17.943 4.61087H46.0563C52.7 4.61087 58.0864 9.99653 58.0866 16.6402V35.2515C58.0865 41.8953 52.7001 47.2808 46.0563 47.2808H42.7233C41.695 47.2808 40.7165 47.708 40.0172 48.4536L39.8805 48.607L34.779 54.688C33.3476 56.3939 30.7173 56.3776 29.3063 54.6548L24.3805 48.6402L24.2438 48.4839C23.5432 47.72 22.5522 47.2808 21.5094 47.2808H17.943C11.2994 47.2806 5.91375 41.8951 5.91373 35.2515V16.6402L5.91763 16.3296C6.08254 9.82964 11.4033 4.61106 17.943 4.61087Z" stroke="white" stroke-width="5"/>
<path d="M23.3729 30.0319C24.1529 31.915 27.0165 35.681 32.231 35.681C37.4456 35.681 40.0864 31.915 40.7549 30.0319" stroke="white" stroke-width="4" stroke-linecap="round"/>
</svg>
