<svg width="64" height="64" viewBox="0 0 64 64" fill="none" xmlns="http://www.w3.org/2000/svg">
<path d="M12.2998 12.4115C20.8013 1.76206 36.326 0.0205977 46.9756 8.52188C52.0117 12.5423 55.5097 18.6443 56.7363 25.0551C57.9614 31.4585 56.8876 37.9498 53.1084 42.9076C50.4985 46.3314 46.7269 48.6833 42.5039 49.5199L35.6279 50.8822C33.6843 51.2676 32.4476 53.1878 32.9013 55.1166L33.6884 58.4604C34.0433 59.9687 32.5858 61.2705 31.1269 60.7484L29.8808 60.3022C28.1982 59.6997 26.5856 58.9169 25.0722 57.9662L18.8535 54.059C17.3091 53.0888 15.8894 51.9319 14.6269 50.6156L14.0068 49.9691C4.10624 39.6466 3.37632 23.5895 12.2998 12.4115Z" stroke="white" stroke-width="5"/>
<circle cx="24.6872" cy="28.9557" r="3.21299" fill="white"/>
<circle cx="40.2724" cy="28.9557" r="3.21299" fill="white"/>
</svg>
