<svg width="64" height="64" viewBox="0 0 64 64" fill="none" xmlns="http://www.w3.org/2000/svg">
<g clip-path="url(#clip0_9_90)">
<path d="M17.943 9.61087H46.0563C52.7 9.61087 58.0864 14.9965 58.0866 21.6402V40.2515C58.0865 46.8953 52.7001 52.2808 46.0563 52.2808H42.7233C41.695 52.2808 40.7165 52.708 40.0172 53.4536L39.8805 53.607L34.7789 59.688C33.3476 61.3939 30.7173 61.3776 29.3063 59.6548L24.3805 53.6402L24.2438 53.4839C23.5432 52.72 22.5522 52.2808 21.5094 52.2808H17.943C11.2994 52.2806 5.91374 46.8951 5.91371 40.2515V21.6402L5.91762 21.3296C6.08252 14.8296 11.4033 9.61106 17.943 9.61087Z" stroke="white" stroke-width="5"/>
<rect x="23.0374" y="23.5196" width="17.9994" height="4.21264" rx="2.10632" transform="rotate(0.315354 23.0374 23.5196)" fill="white"/>
<rect x="22.9867" y="32.7321" width="10.0529" height="4.21264" rx="2.10632" transform="rotate(0.315354 22.9867 32.7321)" fill="white"/>
</g>
<defs>
<clipPath id="clip0_9_90">
<rect width="58" height="57" fill="white" transform="translate(3 7)"/>
</clipPath>
</defs>
</svg>
