<svg width="64" height="64" viewBox="0 0 64 64" fill="none" xmlns="http://www.w3.org/2000/svg">
<g clip-path="url(#clip0_9_134)">
<path d="M17.943 9.72366H46.0563C52.7 9.72366 58.0864 15.1093 58.0866 21.753V40.3643C58.0865 47.0081 52.7001 52.3936 46.0563 52.3936H42.7233C41.695 52.3936 40.7165 52.8208 40.0172 53.5664L39.8805 53.7198L34.779 59.8008C33.3476 61.5066 30.7173 61.4904 29.3063 59.7676L24.3805 53.753L24.2438 53.5967C23.5432 52.8328 22.5522 52.3936 21.5094 52.3936H17.943C11.2994 52.3934 5.91375 47.0079 5.91373 40.3643V21.753L5.91763 21.4424C6.08254 14.9424 11.4033 9.72385 17.943 9.72366Z" stroke="white" stroke-width="5"/>
<path d="M23.3729 35.1447C24.1529 37.0277 27.0165 40.7938 32.231 40.7938C37.4456 40.7938 40.0864 37.0277 40.7549 35.1447" stroke="white" stroke-width="4" stroke-linecap="round"/>
</g>
<defs>
<clipPath id="clip0_9_134">
<rect width="58" height="57" fill="white" transform="translate(3.07852 7)"/>
</clipPath>
</defs>
</svg>
