<svg width="64" height="64" viewBox="0 0 64 64" fill="none" xmlns="http://www.w3.org/2000/svg">
<path d="M12.6585 12.4115C21.1601 1.76204 36.6847 0.0205825 47.3343 8.52187C52.3704 12.5422 55.8684 18.6443 57.0951 25.0551C58.3202 31.4585 57.2464 37.9497 53.4671 42.9076C50.8572 46.3314 47.0857 48.6833 42.8626 49.5199L35.9867 50.8822C34.0431 51.2676 32.8064 53.1878 33.2601 55.1166L34.0472 58.4603C34.4021 59.9687 32.9446 61.2705 31.4857 60.7484L30.2396 60.3021C28.5569 59.6997 26.9444 58.9169 25.431 57.9662L19.2122 54.059C17.6679 53.0888 16.2481 51.9319 14.9857 50.6156L14.3656 49.9691C4.465 39.6466 3.73507 23.5895 12.6585 12.4115Z" stroke="white" stroke-width="5"/>
<rect x="23.012" y="21.9912" width="17.9994" height="4.21264" rx="2.10632" transform="rotate(0.315354 23.012 21.9912)" fill="white"/>
<rect x="22.9613" y="31.2037" width="10.0529" height="4.21264" rx="2.10632" transform="rotate(0.315354 22.9613 31.2037)" fill="white"/>
</svg>
