<svg width="64" height="64" viewBox="0 0 64 64" fill="none" xmlns="http://www.w3.org/2000/svg">
<g clip-path="url(#clip0_9_101)">
<path d="M17.943 9.72174H46.0563C52.7 9.72174 58.0864 15.1074 58.0866 21.751V40.3624C58.0865 47.0061 52.7001 52.3917 46.0563 52.3917H42.7233C41.695 52.3917 40.7165 52.8189 40.0172 53.5645L39.8805 53.7178L34.779 59.7989C33.3476 61.5047 30.7173 61.4885 29.3063 59.7657L24.3805 53.751L24.2438 53.5948C23.5432 52.8309 22.5522 52.3917 21.5094 52.3917H17.943C11.2994 52.3915 5.91375 47.006 5.91373 40.3624V21.751L5.91763 21.4405C6.08254 14.9405 11.4033 9.72193 17.943 9.72174Z" stroke="white" stroke-width="5"/>
<circle cx="23.3922" cy="32.7617" r="3.21299" fill="white"/>
<circle cx="40.6078" cy="32.7617" r="3.21299" fill="white"/>
</g>
<defs>
<clipPath id="clip0_9_101">
<rect width="58" height="57" fill="white" transform="translate(3 7)"/>
</clipPath>
</defs>
</svg>
