<svg width="64" height="64" viewBox="0 0 64 64" fill="none" xmlns="http://www.w3.org/2000/svg">
<path d="M42.636 25.0739H44.5686C52.2271 25.0739 58.4358 31.2826 58.4358 38.9411C58.4357 41.7292 57.5949 44.4524 56.0237 46.7556L54.4856 49.0105C53.6022 50.3053 53.6878 52.0298 54.6946 53.2312L56.8909 55.8522C57.1634 56.1777 56.9316 56.6735 56.5071 56.6735H42.636C33.9101 56.6735 26.8362 49.5996 26.8362 40.8737C26.8362 32.1478 33.9101 25.0739 42.636 25.0739Z" stroke="white" stroke-width="5"/>
<path d="M30.2383 4.82617L30.9394 4.83496C39.0254 5.03972 46.2325 8.77739 51.0772 14.5616C52.415 16.1588 51.1582 18.3994 49.0747 18.3994C48.2401 18.3994 47.4599 18.0072 46.9094 17.3799C42.8454 12.7494 36.8833 9.82617 30.2383 9.82617H27.3681C16.7072 9.82637 8.06443 18.4689 8.06443 29.1299C8.06448 33.0113 9.23532 36.8025 11.4228 40.0088L13.9131 43.6602C15.4273 45.8799 15.2815 48.836 13.5556 50.8955L10.8086 54.1738H20.9853C22.366 54.1738 23.4853 55.2931 23.4853 56.6738C23.4853 58.0545 22.366 59.1738 20.9853 59.1738H9.63963L9.29099 59.1611C5.73328 58.8995 3.87212 54.6662 6.22556 51.8574L9.72361 47.6836C10.0111 47.3404 10.0355 46.8474 9.78318 46.4775L7.29197 42.8271C4.62395 38.9166 3.15842 34.3144 3.06931 29.5879L3.06443 29.1299C3.06443 15.9171 13.6086 5.16672 26.7412 4.83398L27.3681 4.82617H30.2383Z" fill="white"/>
</svg>
